<svg xmlns="http://www.w3.org/2000/svg" width="30" height="24"><path fill="#008ee8" d="M9.435 23.98c11.321 0 17.512-8.995 17.512-16.794 0-.255-.005-.51-.017-.762A12.254 12.254 0 0030 3.367c-1.103.47-2.29.787-3.535.93 1.271-.731 2.247-1.887 2.707-3.265a12.67 12.67 0 01-3.908 1.433A6.274 6.274 0 0020.77.6c-3.4 0-6.156 2.643-6.156 5.901 0 .464.054.914.16 1.346C9.659 7.6 5.123 5.252 2.088 1.681a5.704 5.704 0 00-.834 2.966c0 2.048 1.087 3.855 2.74 4.913a6.307 6.307 0 01-2.788-.738l-.001.075c0 2.859 2.121 5.245 4.938 5.786a6.428 6.428 0 01-2.78.101c.784 2.345 3.056 4.052 5.75 4.1a12.688 12.688 0 01-7.645 2.526c-.496 0-.986-.027-1.468-.082a17.97 17.97 0 009.435 2.651"/></svg>