<svg xmlns="http://www.w3.org/2000/svg" width="28" height="28"><defs><linearGradient id="a" x1="14" x2="14" y1="27.66" y2=".67" gradientUnits="userSpaceOnUse"><stop offset="0" stop-color="#e09b3d"/><stop offset=".3" stop-color="#c74c4d"/><stop offset=".6" stop-color="#c21975"/><stop offset="1" stop-color="#7024c4"/></linearGradient><linearGradient id="b" x1="14" x2="14" y1="27.65" y2=".67" gradientUnits="userSpaceOnUse"><stop offset="0" stop-color="#e09b3d"/><stop offset=".3" stop-color="#c74c4d"/><stop offset=".6" stop-color="#c21975"/><stop offset="1" stop-color="#7024c4"/></linearGradient><linearGradient id="c" x1="21.25" x2="21.25" y1="27.66" y2=".68" gradientUnits="userSpaceOnUse"><stop offset="0" stop-color="#e09b3d"/><stop offset=".3" stop-color="#c74c4d"/><stop offset=".6" stop-color="#c21975"/><stop offset="1" stop-color="#7024c4"/></linearGradient></defs><path fill="url(#a)" d="M19.659.46C24.258.46 28 4.105 28 8.586V19.61c0 4.48-3.742 8.126-8.341 8.126H8.34C3.741 27.736 0 24.09 0 19.61V8.586C0 4.106 3.742.46 8.341.46zm5.524 8.126c0-2.973-2.473-5.382-5.524-5.382H8.34c-3.05 0-5.524 2.41-5.524 5.382V19.61c0 2.972 2.473 5.382 5.524 5.382h11.32c3.05 0 5.524-2.41 5.524-5.382z"/><path fill="url(#b)" d="M21.244 14.095c0 3.89-3.249 7.054-7.242 7.054S6.76 17.985 6.76 14.095s3.249-7.055 7.242-7.055 7.242 3.165 7.242 7.055zm-2.817 0c0-2.381-1.981-4.311-4.425-4.311s-4.425 1.93-4.425 4.31c0 2.381 1.98 4.311 4.425 4.311 2.444 0 4.425-1.93 4.425-4.31z"/><path fill="url(#c)" d="M21.255 8.79c.959 0 1.736-.756 1.736-1.69 0-.933-.777-1.69-1.736-1.69-.958 0-1.735.757-1.735 1.69 0 .934.777 1.69 1.735 1.69z"/></svg>