<svg xmlns="http://www.w3.org/2000/svg" width="412" height="362"><path fill="#008eff" d="M180.384 49.396c18.538-6.894 41.107-.965 60.379 7.683 60.531 27.167 104.63 78.737 139.666 131.277 12.686 19.024 24.735 38.886 29.504 60.123 9.71 43.226-15.616 87.976-58.688 103.658-14.647 5.338-30.74 7.527-46.856 8.746-28.659 2.172-58.331 1.31-86.76-6.734-20.274-5.749-39.453-14.996-57.847-25.212-51.371-28.547-98.284-65.618-132.065-110.902-14.816-19.861-27.35-42.253-27.71-65.17-.362-22.917 14.565-45.944 39.124-49.841 10.153-1.61 20.893.066 31.371 1.79 15.427 2.542 31.064 5.215 46.314 4.106 15.756-1.153 36.248-7.313 39.12-22.362 3.042-16.158 5.935-30.276 24.448-37.162z" opacity=".1"/><path fill="#1ece7a" d="M359.662 78.24a3 3 0 00-3-3.003h-9.558a3 3 0 00-3 3v9.33a3 3 0 003 3h9.55a3 3 0 003-2.998zm-.234-10.787a.012.012 0 01-.011-.011c.01-16.5 22.629-18.649 22.629-37.49C382.046 13.304 368.539 0 351.873 0a30.107 30.107 0 00-21.35 8.827 30.138 30.138 0 00-8.68 18.372c-.16 1.647 1.197 2.99 2.852 2.99h9.093c1.657 0 2.97-1.358 3.313-2.979 1.422-6.732 7.52-12.209 14.772-12.209 8.297 0 15.088 6.65 15.088 14.952 0 14.405-20.677 13.77-22.503 34.488-.146 1.65 1.214 3.012 2.871 3.012z"/><path fill="#008eff" d="M115.385 194.153h-7.322v7.235h7.322zm-.111-3.663c0-7.77 10.65-8.78 10.67-17.649a14.215 14.215 0 00-4.28-9.88 14.2 14.2 0 00-19.92.078 14.215 14.215 0 00-4.204 9.913h7.1a7.258 7.258 0 017.084-7.145 7.064 7.064 0 016.55 4.338c.36.856.546 1.775.55 2.704 0 7.1-10.65 6.447-10.65 17.657h7.1zm218.303 49.257h-7.321v7.214h7.321zm-.106-3.663c0-7.77 10.646-8.783 10.633-17.653a14.215 14.215 0 00-4.28-9.88 14.2 14.2 0 00-19.92.078 14.215 14.215 0 00-4.204 9.913h7.1a7.258 7.258 0 017.12-7.153 7.06 7.06 0 016.551 4.334c.36.856.546 1.775.55 2.704 0 7.1-10.65 6.443-10.65 17.657zm-128.937-78.637h-5.307v5.22h5.307zm-.078-2.669c0-5.63 7.711-6.364 7.72-12.79a10.301 10.301 0 00-3.044-7.27 10.29 10.29 0 00-14.556.057 10.302 10.302 0 00-2.986 7.295h5.146a5.257 5.257 0 015.147-5.182 5.12 5.12 0 015.146 5.1c0 5.14-7.72 4.668-7.72 12.79zm90.708 12.301h-3v2.956h3zm-.045-1.499c0-3.182 4.362-3.614 4.346-7.223a5.824 5.824 0 00-5.84-5.647 5.818 5.818 0 00-5.795 5.692h2.91a2.974 2.974 0 012.91-2.927 2.871 2.871 0 012.905 2.874c0 2.907-4.363 2.64-4.363 7.231zm35.908 155.999h-3v2.956h3zm-.028-1.5c0-3.181 4.362-3.596 4.346-7.222a5.824 5.824 0 00-5.84-5.647 5.818 5.818 0 00-5.795 5.692h2.91a2.97 2.97 0 012.91-2.927 2.892 2.892 0 012.909 2.874c0 2.907-4.367 2.636-4.367 7.23z" opacity=".1"/><path fill="#4c4981" d="M355.936 132.07a21.135 21.135 0 00-21.145-9.965v15.138h9.187l7.19-1.82z"/><path d="M355.936 132.07a21.135 21.135 0 00-21.145-9.965v15.138h9.187l7.19-1.82z" opacity=".1"/><path fill="#f6c2b2" d="M334.102 126.114l11.26 7.892s.095-1.576.38-3.735c.55-4.157 1.742-5.876 4.537-11.393 4.88-9.632 18.463-4.214 25.766-23.868-13.216-3.192-33.305 12.168-33.305 12.168s-1.29.444-3.352 4.708c-1.057 2.242-2.506 6.061-3.595 9.182a134.217 134.217 0 00-1.691 5.046z"/><path fill="#4c4981" d="M244.146 138.269l-1.28-.603-3.594 4.104 2.94 6.273 5.01-2.01-1.162-5.014z"/><path fill="#f6c2b2" d="M207.14 169.19l2.22 2.402 1.449 1.566 8.458 9.097 21.855 2.465 11.63-3.11 2.876-.772s0-5.84-.518-12.843c-.74-8.981-2.506-19.888-6.724-22.86a16.808 16.808 0 01-4.917-6.231 35.11 35.11 0 01-2.115-5.226c-.084-.233-.148-.455-.222-.688a58.44 58.44 0 01-2.05-9.595s-2.792-1.544-6.672-3.343c-10.119-4.728-27.596-11.255-21.517 3.343a57.15 57.15 0 012.284 6.56c.095.327.18.655.254.972 2.03 8.125.687 13.054-.825 15.773-.255.471-.549.92-.877 1.344a7.053 7.053 0 01-1.47 1.491l-2.516 15.985-.212 1.322z"/><path d="M210.883 124.179c1.152 2.771-.56-2.264 0 0 4.61 3.279 15.468 12.62 21.569 12.62 4.123 0 5.36-.751 8.892-2.348a57.745 57.745 0 01-2.273-10.272s-36.594-20.185-28.188 0z" opacity=".1"/><path fill="#f6c2b2" d="M201.568 107.178a28.232 28.232 0 007.245 18.863 28.204 28.204 0 0017.993 9.182c.973.095 1.956.158 2.95.158a28.177 28.177 0 0015.66-4.753c4.636-3.099 5.04-8.127 7.173-13.28 2.134-5.154 4.914-3.472 3.826-8.943-1.087-5.47-2.785-17.225-6.727-21.169a28.183 28.183 0 00-30.72-6.113 28.19 28.19 0 00-12.65 10.387 28.213 28.213 0 00-4.75 15.668z"/><path d="M197.56 232.198l4.018 10.483s3.267.138 8.364.296c17.202.55 55.107 1.249 56.798-3.173.38-1.122.58-2.297.593-3.48.222-6.74-2.919-17.085-2.919-17.085s-1.808-20.703-1.808-21.602c0-.9 1.555-15.402 1.555-15.402l-3.109-11.637-8.66-6.083s-3.88 5.956-6.206 6.464c-2.326.507-5.434 3.374-5.434 3.374s-7.624 4.655-10.087 2.063c-2.464-2.592-21.59-13.974-21.59-13.974l-10.087 11.128z" opacity=".1"/><path fill="#fff" d="M197.56 233.805l4.018 10.473s3.267.148 8.364.307h.497c2.199.074 4.715.148 7.4.201 13.672.317 32.503.402 42.346-1.058 3.7-.529 6.122-1.29 6.524-2.327a9.346 9.346 0 00.465-1.925 19.01 19.01 0 00.127-1.556c.222-6.738-2.918-17.084-2.918-17.084s-1.808-20.703-1.808-21.602c0-.9 1.554-15.403 1.554-15.403l-3.109-11.636-5.952-4.168-2.707-1.904a40.595 40.595 0 01-2.971 3.914 7.91 7.91 0 01-3.235 2.55c-2.337.518-5.435 3.374-5.435 3.374s-7.623 4.655-10.087 2.063c-1.871-1.978-13.502-9.098-18.873-12.346a191.677 191.677 0 00-2.717-1.629l-1.354 1.502-8.733 9.627z"/><path d="M334.102 126.114l11.26 7.892s.095-1.577.38-3.735c-5.56-2.348-8.944-7.542-9.916-9.203a109.62 109.62 0 00-1.724 5.046z" opacity=".1"/><path fill="#4c4981" d="M294.538 152.899l2.453-.656s4.018 4.231 6.344 4.792c2.326.56 7.232 3.745 7.232 3.745l5.699 4.528s4.229.656 2.97-2.328c-1.258-2.983 2.327-6.728 2.327-6.728s7.242-14.873 7.242-17.984c0-3.11 5.985-16.164 5.985-16.164s7.507 14.62 21.21 9.965c0 0-9.96 22.374-10.214 27.939-.254 5.564-6.852 21.083-6.852 21.083s-2.463 11.52-15.775 10.875c0 0-18.365 3.417-22.372 0-4.008-3.417-7.624-6.104-9.516-6.495-1.893-.392-3.616-2.582-3.616-2.582v-15.381z"/><path d="M317.555 167.508s-3.235 12.04-1.163 13.33m-106.45 63.694c17.202.55 55.107 1.238 56.798-3.173.38-1.122.58-2.297.593-3.48l-56.197 2.961z" opacity=".1"/><path fill="#444053" d="M190.582 305.159l2.2 4.654s.306 1.386.697 3.587c.825 4.739 2.115 13.287 1.629 20.1-.645 9.964 0 12.75 0 12.75s21.263 9.823 56.815 14.22c14.439 1.785 27.983 1.515 27.983 1.515s-2.698-18.394 1.447-26.158c2.823-5.29 4.81-28.902 4.874-44.431 0-7.162-.36-12.589-1.258-13.689-2.845-3.49-14.993-38.422-14.993-38.422l-2.77.148-7.401.392-42.081 2.221-6.609.35-.698 2.115z"/><path fill="#4c4981" d="M169.638 289.629l-.391 4.147s20.838-6.792 19.781-15.138c-1.057-8.347 0-7.406 0-7.406l-16.747 1.418z"/><path d="M169.638 289.629l-.391 4.147s20.838-6.792 19.781-15.138c-1.057-8.347 0-7.406 0-7.406l-16.747 1.418zM303.334 176.3a9.342 9.342 0 00-1.607 2.55 15.421 15.421 0 00.117 8.007l3.34-8.06c.582-1.376 1.164-2.751 1.861-4.063.307-.56 2.231-2.899 2.01-3.385-.593-1.375-5.097 4.178-5.72 4.95zm-58.194-31.959s-.254 11.912 1.68 17.35c.614 1.692 1.565 4.813 2.602 8.314 1.131 3.883 2.368 8.23 3.32 11.637.951 3.406 1.586 5.691 1.586 5.691s4.366 35.587 5.498 52.545c0 .296 0 .603.063.888.063.952.17 1.947.328 2.973 2.516 16.84 17.033 42.812 21.907 44.885a14.512 14.512 0 014.103 2.825c0-7.162-.36-12.59-1.258-13.69-2.845-3.49-14.993-38.421-14.993-38.421l-2.77.148c.063-.486.105-1.058.127-1.555.222-6.739-2.919-17.085-2.919-17.085s-1.808-20.702-1.808-21.601c0-.9 1.555-15.403 1.555-15.403l-3.109-11.637-5.953-4.168c-.74-8.98-2.505-19.888-6.724-22.86a16.808 16.808 0 01-4.917-6.231c-.835.116.688-.624.688-.624z" opacity=".1"/><path fill="#4c4981" d="M242.866 137.666a7.694 7.694 0 016.545.74c2.982 2.116 8.797 1.936 10.351 1.555 1.554-.38 17.71-2.464 19.032-1.946 1.322.518 3.88-1.809 5.561 1.301s2.453 4.782 4.134 5.554c1.682.772 4.663 3.237 4.23 3.755-.434.519 4.229 3.618 4.229 3.618l-9.431 30.679s6.08 38.802 9.05 42.166c2.971 3.364 29.351 46.96 19.91 54.724a187.798 187.798 0 01-23.663 15.868c-1.058.519-4.78-6.463-9.95-8.664-5.17-2.2-21.21-31.312-22.203-47.868-.994-16.556-5.562-53.423-5.562-53.423s-5.56-20.184-7.496-25.622c-1.935-5.437-1.68-17.349-1.68-17.349z"/><path d="M190.582 305.159l2.2 4.654s.306 1.386.697 3.586c.392-.049.76-.215 1.058-.476 3.235-2.592 22.203-22.12 23.144-39.458.666-12.79.35-23.813.138-28.721-.064-1.545-.127-2.476-.127-2.677 0 0-14.74-17.857-13.058-24.183 1.681-6.326 5.561-40.199 5.561-40.199l.571-4.443.984-7.51 2.347-18.175-2.432.571a7.054 7.054 0 01-1.47 1.492l-2.516 15.984-8.733 9.627-1.428 58.606 4.018 10.473s3.267.148 8.363.307h.497z" opacity=".1"/><path fill="#4c4981" d="M182.441 208.417s3.616-1.428 3.87 0 .91 4.517.91 4.517-.646 7.51 2.114 10.483c2.76 2.973 3.172 15.52 3.172 15.52s4.356 12.42 2.294 16.301c-.75 1.407-1.914 8.463-3.077 16.926-.74 5.29-1.47 11.097-2.114 16.407-1.174 9.648-2.051 17.635-2.051 17.635s2.336 8.537 5.572 5.945c3.235-2.59 22.203-22.12 23.134-39.458a313.31 313.31 0 00.169-27.97c-.085-2.211-.17-3.46-.17-3.46s-14.738-17.856-13.057-24.193c1.68-6.337 5.561-40.199 5.561-40.199l.677-5.236.73-5.628.169-1.238 2.336-17.984c-.412.095-14.918 3.375-16.832 5.29-1.914 1.914-13.745 4.654-13.745 4.654a10.34 10.34 0 00-7.338 7.532c-.116.36-.2.74-.285 1.132-1.555 7.51-1.058 8.41-2.115 9.711-1.057 1.302 10.076 33.313 10.076 33.313z"/><path d="M189.525 288.56c5.287-1.057 13.132-3.501 12.952-8.896-.159-5.046-6.227-6.866-10.826-7.511-.74 5.268-1.47 11.097-2.126 16.407z" opacity=".1"/><path fill="#f6c2b2" d="M173.126 285.874c.212.455 1.057.846 2.263 1.195a60.95 60.95 0 008.596 1.407s17.974-1.428 17.72-9.584c-.19-5.85-8.31-7.405-12.867-7.754a29.59 29.59 0 00-3.035-.127s-13.449 13.191-12.677 14.863z"/><path d="M173.127 285.874c.211.454 1.057.846 2.262 1.195 4.684-6.273 11.218-14.323 14.421-15.032l-.972-.9a29.588 29.588 0 00-3.035-.126s-13.448 13.191-12.676 14.863z" opacity=".1"/><path fill="#4c4981" d="M177.651 174.237l-5.286.782a91.908 91.908 0 01-6.344 9.701 10.583 10.583 0 00-2.326 6.21s-7.76 11.51-10.214 12.8c-2.453 1.29-6.206 10.092-6.206 10.092s-6.08 4.01-6.08 8.537a76.08 76.08 0 01-1.163 11.256c-.137.645.899 8.674 3.49 12.694 2.59 4.02 5.18 12.885 5.043 14.472-.138 1.587 7.242 9.838 9.304 12.42a52.632 52.632 0 014.525 7.638l6.852 12.937s14.485-21.348 19.782-22.512c0 0-5.942-5.69-8.913-6.728-2.971-1.036-5.826-9.52-5.953-11.51-.127-1.988-2.717-8.41-5.424-9.52-2.706-1.11-4.144-2.327-2.981-4.147 1.163-1.82 0-5.29 0-5.29s7.633-10.091 8.67-15.867c1.036-5.776 8.014-9.701 8.014-9.701l4.007-9.838z"/><path d="M158.42 222.529a16.773 16.773 0 00-10.436-3.957c2.453.424 5.032.963 6.83 2.677a16.12 16.12 0 011.892 2.412c.614.878 5.604 7.225 6.344 6.22 1.237-1.47-3.627-6.495-4.63-7.352zm16.292-58.353c.521.682 1.12 1.3 1.787 1.84 2.114 1.683 4.916 3.1 5.18 5.756a6.19 6.19 0 00.318 2.55c.677 1.163 2.337 1.057 3.658.835a6.342 6.342 0 003.098-1.143c1.385-1.184 1.512-3.3 2.57-4.792a6.525 6.525 0 015.286-2.338c1.977-.063 3.944.381 5.92.466a16.269 16.269 0 003.797-.254c.413-.063.822-.148 1.226-.254a15.78 15.78 0 002.58-.878c.431-.172.851-.37 1.258-.592a16.707 16.707 0 003.648-2.54c1.935-1.776 3.542-4.23 3.383-6.865-.095-1.618-.824-3.11-1.057-4.707-.793-4.57 2.242-8.886 5.53-12.155 1.31-1.301 2.706-2.56 4.018-3.883a19.35 19.35 0 004.726-6.749 20.108 20.108 0 00.846-8.463 58.422 58.422 0 01-.244-8.696c.973-10.282 9.749-18.163 18.525-22.448l.39-.2a28.179 28.179 0 00-20.869-9.67 28.165 28.165 0 00-21.119 9.111 28.195 28.195 0 00-7.299 21.821 28.204 28.204 0 0011.383 19.994c.095.328.18.656.254.974 2.03 8.124.687 13.054-.825 15.772-.412.096-14.919 3.375-16.832 5.29-1.914 1.915-13.745 4.654-13.745 4.654a10.339 10.339 0 00-7.39 7.564z" opacity=".1"/><path fill="#444053" d="M253.017 81.208c-.582-.667-1.46-1.005-2.052-1.65-1.829-1.99 0-5.237-.666-7.86-.719-2.91-4.292-4.179-7.274-3.872-2.982.307-5.773 1.682-8.755 2.02-4.63.519-9.114-1.491-13.628-2.666-4.515-1.174-9.97-1.237-13.08 2.222-3.108 3.46-2.896 9.352-6.766 11.859-1.787 1.153-4.039 1.28-5.974 2.115a12.279 12.279 0 00-5.054 4.835 25.337 25.337 0 00-3.827 16.196c.327 3.068 1.216 6.051 1.575 9.119.365 3.186.15 6.411-.634 9.52-.814 3.174-2.58 6.602-5.742 7.617-.73.161-1.44.406-2.114.73-1.83 1.143-1.586 3.83-1.12 5.924l1.881 8.685c-1.808 1.376-4.62.783-6.344 2.233a5.29 5.29 0 00-1.48 2.327 12.7 12.7 0 003.796 13.9c2.114 1.682 4.916 3.1 5.18 5.744-.08.863.028 1.733.318 2.55.666 1.163 2.336 1.058 3.658.835a6.337 6.337 0 003.087-1.142c1.396-1.185 1.512-3.3 2.57-4.792a6.543 6.543 0 015.286-2.338c1.988-.063 3.944.381 5.932.476 4.584.188 9.06-1.43 12.466-4.506 1.945-1.788 3.542-4.232 3.394-6.876-.096-1.608-.825-3.11-1.058-4.708-.782-4.56 2.242-8.886 5.53-12.155 3.288-3.269 7.147-6.284 8.754-10.632 2.01-5.384.064-11.393.603-17.105.973-10.293 9.738-18.164 18.524-22.459 1.956-1.005 5.287-3.554 3.014-6.146z"/></svg>