<svg xmlns="http://www.w3.org/2000/svg" width="55" height="55"><path fill="#c5f2dc" d="M0 24C0 10.745 10.745 0 24 0h7c13.255 0 24 10.745 24 24v7c0 13.255-10.745 24-24 24h-7C10.745 55 0 44.255 0 31z" opacity=".6"/><path fill="#1ece7a" d="M36.735 13.49a.6.6 0 01.36.55v9.42a6.608 6.608 0 01-2.736 5.345l-6.222 4.485a1.099 1.099 0 01-1.288 0l-6.221-4.486a6.608 6.608 0 01-2.737-5.345v-9.42a.6.6 0 01.36-.55l9.002-3.939a.6.6 0 01.48 0zm-.84.942l-8.402-3.677-8.402 3.677v9.028a5.405 5.405 0 002.239 4.371l6.163 4.445 6.164-4.445a5.405 5.405 0 002.238-4.371zm-8.642-2.262a.6.6 0 01.48 0l6.602 2.89a.6.6 0 01.36.55v7.85a4.2 4.2 0 01-1.74 3.399l-5.11 3.685a.6.6 0 01-.703 0l-5.11-3.685a4.2 4.2 0 01-1.74-3.399v-7.85a.6.6 0 01.36-.55zm.24 1.205l-6 2.626v7.46a3 3 0 001.242 2.425l4.759 3.432 4.759-3.432a3 3 0 001.242-2.425V16zM14.463 29.42a2.761 2.761 0 013.28.17 11.873 11.873 0 003.435 2.204 4.32 4.32 0 012 1.46 6.286 6.286 0 011.316 3.93V38.3a1.2 1.2 0 011.2 1.2v4.8a1.2 1.2 0 01-1.2 1.2H17.89a1.2 1.2 0 01-1.2-1.2v-4.8c0-.304.117-.596.325-.816l-3.698-3.699a6.373 6.373 0 01-1.303-1.88l-2.352-5.173a1.912 1.912 0 113.5-1.545zm3.43 14.88h6.6v-4.8h-6.6zm5.4-7.117a5.09 5.09 0 00-1.052-3.18 3.152 3.152 0 00-1.443-1.07 12.797 12.797 0 01-3.829-2.424 1.56 1.56 0 00-1.943-.032c.216.324.464.625.74.9l2.74 2.741a.6.6 0 11-.848.849l-2.741-2.742a7.08 7.08 0 01-1.514-2.235l-1.342-3.13a.712.712 0 00-1.255-.105.713.713 0 00-.05.681l2.352 5.173a5.19 5.19 0 001.06 1.528L18.33 38.3h4.963zm-.6 4.117a.6.6 0 010 1.2h-.6a.6.6 0 110-1.2zm20.28-8.195a6.373 6.373 0 01-1.302 1.88l-3.699 3.699c.208.22.325.512.325.816v4.8a1.2 1.2 0 01-1.2 1.2h-6.601a1.2 1.2 0 01-1.2-1.2v-4.8a1.2 1.2 0 011.2-1.2v-1.117a6.286 6.286 0 011.315-3.932 4.321 4.321 0 012-1.458 11.869 11.869 0 003.436-2.205 2.768 2.768 0 013.283-.18l1.295-3.02a1.913 1.913 0 113.5 1.544zM30.495 44.3h6.601v-4.8h-6.601zm1.2-6h4.962l4.162-4.163a5.19 5.19 0 001.059-1.528l2.352-5.172a.713.713 0 10-1.305-.577l-1.342 3.13a7.077 7.077 0 01-1.514 2.236l-2.741 2.741a.6.6 0 01-.849-.848l2.741-2.742c.278-.276.527-.58.744-.906a1.56 1.56 0 00-1.947.038 12.79 12.79 0 01-3.83 2.424 3.154 3.154 0 00-1.44 1.07 5.09 5.09 0 00-1.052 3.18zm1.2 3a.6.6 0 110 1.2h-.6a.6.6 0 010-1.2zm-9.483-18.96a.6.6 0 01.84-.12l1.893 1.42 4.45-6.673a.6.6 0 01.998.666l-4.801 7.2a.6.6 0 01-.86.147l-2.4-1.8a.6.6 0 01-.12-.84z"/></svg>