<svg xmlns="http://www.w3.org/2000/svg" width="276" height="142"><defs><filter id="a" width="316" height="203" x="-20" y="-32" filterUnits="userSpaceOnUse"><feOffset dy="12" in="SourceGraphic" result="FeOffset1113Out"/><feGaussianBlur in="FeOffset1113Out" result="FeGaussianBlur1114Out" stdDeviation="19.2 19.2"/></filter><mask id="b" width="2" height="2" x="-1" y="-1"><path fill="#fff" d="M38 26h200v75H38z"/><path d="M38 31a5 5 0 015-5h190a5 5 0 015 5v51a5 5 0 01-5 5H83.22a5 5 0 00-4.29 2.433L72.01 101l-7.834-11.77A5 5 0 0060.014 87H43a5 5 0 01-5-5z"/></mask></defs><g filter="url(#a)"><path fill="none" d="M38 31a5 5 0 015-5h190a5 5 0 015 5v51a5 5 0 01-5 5H83.22a5 5 0 00-4.29 2.433L72.01 101l-7.834-11.77A5 5 0 0060.014 87H43a5 5 0 01-5-5z" mask="url(&quot;#b&quot;)"/><path fill="#2c2d31" fill-opacity=".16" d="M38 31a5 5 0 015-5h190a5 5 0 015 5v51a5 5 0 01-5 5H83.22a5 5 0 00-4.29 2.433L72.01 101l-7.834-11.77A5 5 0 0060.014 87H43a5 5 0 01-5-5z"/></g><path fill="#fff" d="M38 31a5 5 0 015-5h190a5 5 0 015 5v51a5 5 0 01-5 5H83.22a5 5 0 00-4.29 2.433L72.01 101l-7.834-11.77A5 5 0 0060.014 87H43a5 5 0 01-5-5z"/></svg>